<svg width="43" height="16" viewBox="0 0 43 16" fill="none" xmlns="http://www.w3.org/2000/svg">
<path d="M1.41602 7.25061C0.863731 7.25061 0.416016 7.69833 0.416016 8.25061C0.416016 8.8029 0.863731 9.25061 1.41602 9.25061L1.41602 7.25061ZM41.8846 8.95772C42.2752 8.5672 42.2752 7.93403 41.8846 7.54351L35.5207 1.17955C35.1301 0.789021 34.497 0.789021 34.1065 1.17955C33.7159 1.57007 33.7159 2.20323 34.1065 2.59376L39.7633 8.25061L34.1065 13.9075C33.7159 14.298 33.7159 14.9312 34.1065 15.3217C34.497 15.7122 35.1301 15.7122 35.5207 15.3217L41.8846 8.95772ZM1.41602 9.25061L41.1775 9.25061L41.1775 7.25061L1.41602 7.25061L1.41602 9.25061Z" fill="#0D99FF"/>
</svg>
