<svg width="208" height="44" viewBox="0 0 208 44" fill="none" xmlns="http://www.w3.org/2000/svg">
<path d="M54 20.7272C54 19.7295 54.1943 18.7843 54.5829 17.8968C54.9715 17.0094 55.4966 16.2374 56.1582 15.5706C56.8199 14.9037 57.597 14.3891 58.495 14.0057C59.3877 13.6276 60.3434 13.4333 61.3568 13.4333C62.2705 13.4333 63.1317 13.5751 63.9351 13.8534C64.7386 14.137 65.4527 14.5308 66.0776 15.0349C66.7025 15.5443 67.2276 16.1482 67.6529 16.8518C68.073 17.5555 68.3618 18.3327 68.5194 19.1728H64.9066C64.665 18.4114 64.2292 17.8075 63.5991 17.3559C62.9637 16.9043 62.2233 16.6785 61.3831 16.6785C60.8317 16.6785 60.3224 16.7836 59.8393 16.9936C59.3614 17.2037 58.9413 17.4925 58.5842 17.86C58.2272 18.2276 57.9436 18.653 57.7388 19.1361C57.534 19.6244 57.4342 20.139 57.4342 20.6904C57.4342 21.2523 57.534 21.7826 57.7388 22.2763C57.9436 22.7699 58.2272 23.2005 58.5842 23.5628C58.9413 23.9304 59.3614 24.2192 59.8393 24.4292C60.3171 24.6393 60.8317 24.7443 61.3831 24.7443C62.2285 24.7443 62.9689 24.5185 63.5991 24.0669C64.2345 23.6153 64.6703 23.0114 64.9066 22.25H68.5194C68.3618 23.0954 68.0783 23.8673 67.6529 24.5763C67.2276 25.2799 66.7077 25.8838 66.0776 26.3931C65.4527 26.9025 64.7386 27.2963 63.9351 27.5746C63.1317 27.8582 62.2758 28 61.3568 28C60.3434 28 59.3877 27.8109 58.495 27.4276C57.6023 27.0495 56.8199 26.5244 56.1582 25.8628C55.4966 25.2011 54.9715 24.424 54.5829 23.5418C54.1943 22.6701 54 21.7249 54 20.7272Z" fill="#0D99FF"/>
<path d="M69.7373 22.2239C69.7373 21.3942 69.8843 20.6223 70.1784 19.9134C70.4725 19.2045 70.8768 18.5901 71.3914 18.0755C71.906 17.5609 72.5152 17.1618 73.2293 16.873C73.9382 16.5842 74.7206 16.4424 75.5661 16.4424C76.4115 16.4424 77.1887 16.5894 77.8976 16.873C78.6065 17.1618 79.2261 17.5661 79.7565 18.086C80.2816 18.6059 80.6964 19.2202 80.9905 19.9239C81.2845 20.6275 81.4316 21.3942 81.4316 22.2239C81.4316 23.0536 81.2845 23.8202 80.9905 24.5239C80.6964 25.2275 80.2816 25.8367 79.7565 26.3513C79.2261 26.8659 78.6065 27.265 77.8976 27.5538C77.1887 27.8426 76.4062 27.9844 75.5661 27.9844C74.7259 27.9844 73.9435 27.8426 73.2293 27.5538C72.5204 27.265 71.906 26.8659 71.3914 26.3513C70.8768 25.8367 70.4725 25.2275 70.1784 24.5239C69.8843 23.8255 69.7373 23.0588 69.7373 22.2239ZM72.9878 22.2449C72.9878 22.5967 73.0508 22.938 73.1768 23.2584C73.3028 23.5839 73.4814 23.8622 73.7177 24.1038C73.9487 24.3453 74.227 24.5344 74.5526 24.6762C74.8782 24.8179 75.23 24.8862 75.6081 24.8862C75.9862 24.8862 76.338 24.8179 76.653 24.6762C76.9681 24.5344 77.2359 24.3453 77.4565 24.1038C77.677 23.8622 77.8503 23.5839 77.9763 23.2584C78.1024 22.9328 78.1654 22.5967 78.1654 22.2449C78.1654 21.8773 78.1024 21.5307 77.9868 21.1999C77.8713 20.8691 77.6928 20.5803 77.467 20.3335C77.2412 20.0867 76.9734 19.8924 76.653 19.7506C76.338 19.6088 75.9862 19.5406 75.6081 19.5406C75.2142 19.5406 74.8572 19.6141 74.5421 19.7506C74.227 19.8924 73.9487 20.0867 73.7177 20.3335C73.4866 20.5803 73.3081 20.8691 73.1768 21.1999C73.0508 21.5307 72.9878 21.8826 72.9878 22.2449Z" fill="#0D99FF"/>
<path d="M83.2119 16.6524H86.3573V18.1753C86.7354 17.6396 87.2028 17.2195 87.7489 16.9097C88.3003 16.5999 88.9199 16.4424 89.6078 16.4424C90.3692 16.4424 91.0203 16.6314 91.5717 17.0148C92.1231 17.3928 92.5379 17.9074 92.8162 18.5586C93.2258 17.9127 93.7352 17.3981 94.3496 17.0148C94.9639 16.6367 95.6781 16.4424 96.492 16.4424C97.0434 16.4424 97.537 16.5474 97.9833 16.7469C98.4244 16.9517 98.8078 17.2301 99.1228 17.5924C99.4379 17.9495 99.6847 18.3801 99.8528 18.8789C100.021 19.3778 100.105 19.9344 100.105 20.5383V27.8058H96.9594V21.6358C96.9594 21.0004 96.8018 20.4963 96.4973 20.1234C96.1875 19.7506 95.7884 19.5616 95.2948 19.5616C95.0007 19.5616 94.7224 19.6351 94.4703 19.7821C94.2183 19.9291 94.003 20.1287 93.8244 20.3755C93.6459 20.6223 93.5094 20.9058 93.3991 21.2209C93.2941 21.536 93.2363 21.8721 93.2206 22.2239V27.8006H90.0751V21.6305C90.0751 20.9951 89.9176 20.491 89.613 20.1182C89.3032 19.7453 88.9094 19.5563 88.4315 19.5563C88.1217 19.5563 87.8434 19.6298 87.5966 19.7769C87.3498 19.9239 87.1345 20.1234 86.9507 20.3702C86.7669 20.617 86.6251 20.9006 86.5306 21.2157C86.4361 21.5307 86.3731 21.8668 86.3626 22.2186V27.7953H83.2172V16.6524H83.2119Z" fill="#0D99FF"/>
<path d="M102.479 31.9227V16.6524H105.624V17.981C105.95 17.5031 106.37 17.125 106.879 16.852C107.394 16.5789 108.034 16.4424 108.811 16.4424C109.599 16.4424 110.324 16.5894 110.975 16.873C111.631 17.1618 112.193 17.5661 112.666 18.086C113.138 18.6059 113.506 19.2202 113.763 19.9239C114.026 20.6275 114.152 21.4047 114.152 22.2449C114.152 23.0746 114.021 23.8412 113.763 24.5501C113.501 25.2538 113.138 25.8577 112.676 26.367C112.214 26.8764 111.652 27.2702 110.996 27.559C110.339 27.8478 109.62 27.9896 108.832 27.9896C108.045 27.9896 107.394 27.8583 106.879 27.5905C106.364 27.3227 105.944 26.9551 105.624 26.493V31.9227H102.479ZM105.624 21.8458V22.6282C105.666 22.938 105.755 23.2321 105.897 23.5157C106.039 23.7992 106.223 24.0355 106.459 24.2351C106.69 24.4346 106.958 24.5921 107.262 24.7077C107.567 24.8232 107.898 24.8862 108.265 24.8862C108.675 24.8862 109.042 24.8179 109.363 24.6762C109.688 24.5344 109.961 24.3453 110.187 24.1038C110.413 23.8622 110.586 23.5839 110.718 23.2584C110.844 22.9328 110.907 22.5967 110.907 22.2449C110.907 21.8773 110.844 21.5307 110.728 21.1999C110.607 20.8691 110.434 20.5803 110.198 20.3335C109.967 20.0867 109.688 19.8924 109.363 19.7506C109.037 19.6088 108.675 19.5406 108.265 19.5406C107.535 19.5406 106.926 19.7611 106.448 20.2074C105.971 20.6538 105.692 21.1999 105.624 21.8458Z" fill="#0D99FF"/>
<path d="M115.932 16.6523H119.077V18.6582C119.545 17.9126 120.128 17.356 120.842 16.9884C121.551 16.6208 122.317 16.437 123.131 16.437V19.7557C122.622 19.74 122.134 19.7977 121.661 19.9238C121.188 20.0498 120.768 20.2493 120.406 20.5171C120.038 20.785 119.739 21.1105 119.498 21.4991C119.256 21.8877 119.119 22.3393 119.072 22.8591V27.8005H115.927V16.6523H115.932Z" fill="#0D99FF"/>
<path d="M127.337 22.9225C127.448 23.5842 127.736 24.125 128.204 24.5399C128.671 24.9547 129.265 25.1648 130 25.1648C130.451 25.1648 130.866 25.0545 131.244 24.8287C131.622 24.6029 131.911 24.3298 132.111 24.0043H135.513C135.372 24.6081 135.135 25.1595 134.804 25.6531C134.474 26.1467 134.064 26.5668 133.581 26.9081C133.098 27.2547 132.546 27.5225 131.932 27.7116C131.318 27.9006 130.656 27.9951 129.937 27.9951C129.091 27.9951 128.314 27.8533 127.6 27.5645C126.891 27.2757 126.277 26.8766 125.762 26.362C125.247 25.8474 124.843 25.2383 124.549 24.5346C124.255 23.831 124.108 23.0643 124.108 22.2346C124.108 21.4049 124.25 20.633 124.539 19.9241C124.827 19.2152 125.226 18.6008 125.741 18.0862C126.256 17.5716 126.865 17.1725 127.568 16.8837C128.272 16.5949 129.049 16.4531 129.895 16.4531C130.682 16.4531 131.412 16.5687 132.079 16.7997C132.746 17.0308 133.334 17.3616 133.844 17.7922C134.353 18.2228 134.762 18.7374 135.078 19.336C135.393 19.9346 135.597 20.591 135.681 21.3104C135.708 21.636 135.729 21.8775 135.734 22.0403C135.739 22.2031 135.744 22.3239 135.744 22.4079C135.744 22.5759 135.739 22.7545 135.723 22.933H127.337V22.9225ZM132.347 21.1896C132.247 20.6278 131.979 20.1657 131.544 19.8086C131.108 19.4515 130.572 19.2677 129.937 19.2677C129.275 19.2677 128.734 19.4463 128.309 19.7981C127.883 20.1499 127.6 20.6173 127.442 21.1896H132.347Z" fill="#0D99FF"/>
<path d="M137.309 19.9658C137.309 18.842 137.714 17.9703 138.522 17.356C139.331 16.7416 140.476 16.437 141.956 16.437C143.49 16.437 144.656 16.7626 145.454 17.4085C146.247 18.0544 146.661 18.9523 146.688 20.0918H143.5C143.474 19.2621 142.965 18.8473 141.977 18.8473C140.948 18.8473 140.434 19.1781 140.434 19.8397C140.434 20.1916 140.596 20.4541 140.917 20.6327C141.242 20.8112 141.641 20.9477 142.119 21.0528C142.597 21.1578 143.117 21.2628 143.684 21.3573C144.246 21.4571 144.766 21.6199 145.249 21.8457C145.727 22.0715 146.131 22.3865 146.451 22.7961C146.777 23.2057 146.94 23.7676 146.94 24.487C146.94 25.5582 146.535 26.4037 145.727 27.0338C144.918 27.6587 143.695 27.9737 142.061 27.9737C140.371 27.9737 139.116 27.6482 138.291 26.9918C137.467 26.3354 137.057 25.448 137.057 24.319H140.224C140.292 25.1644 140.906 25.5845 142.061 25.5845C143.185 25.5845 143.752 25.2537 143.752 24.592C143.752 24.2402 143.595 23.9881 143.28 23.8306C142.965 23.6731 142.566 23.5523 142.088 23.463C141.61 23.3738 141.09 23.274 140.533 23.1795C139.977 23.0797 139.457 22.9169 138.979 22.6911C138.501 22.4653 138.102 22.1397 137.787 21.7196C137.467 21.2943 137.309 20.7114 137.309 19.9658Z" fill="#0D99FF"/>
<path d="M148.672 19.9658C148.672 18.842 149.077 17.9703 149.885 17.356C150.694 16.7416 151.839 16.437 153.32 16.437C154.853 16.437 156.019 16.7626 156.817 17.4085C157.61 18.0544 158.025 18.9523 158.051 20.0918H154.864C154.837 19.2621 154.328 18.8473 153.341 18.8473C152.311 18.8473 151.797 19.1781 151.797 19.8397C151.797 20.1916 151.96 20.4541 152.28 20.6327C152.606 20.8112 153.005 20.9477 153.483 21.0528C153.96 21.1578 154.48 21.2628 155.047 21.3573C155.609 21.4571 156.129 21.6199 156.612 21.8457C157.09 22.0715 157.494 22.3865 157.815 22.7961C158.14 23.2057 158.303 23.7676 158.303 24.487C158.303 25.5582 157.899 26.4037 157.09 27.0338C156.281 27.6587 155.058 27.9737 153.425 27.9737C151.734 27.9737 150.479 27.6482 149.654 26.9918C148.83 26.3354 148.42 25.448 148.42 24.319H151.587C151.655 25.1644 152.269 25.5845 153.425 25.5845C154.548 25.5845 155.116 25.2537 155.116 24.592C155.116 24.2402 154.958 23.9881 154.643 23.8306C154.328 23.6731 153.929 23.5523 153.451 23.463C152.973 23.3738 152.453 23.274 151.897 23.1795C151.34 23.0797 150.82 22.9169 150.342 22.6911C149.864 22.4653 149.465 22.1397 149.15 21.7196C148.83 21.2943 148.672 20.7114 148.672 19.9658Z" fill="#0D99FF"/>
<path d="M159.994 13.7329C159.994 13.255 160.167 12.8454 160.514 12.5094C160.861 12.1733 161.291 12 161.811 12C162.32 12 162.746 12.168 163.087 12.5094C163.434 12.8454 163.607 13.255 163.607 13.7329C163.607 14.2265 163.434 14.6413 163.087 14.9774C162.74 15.3135 162.315 15.4868 161.811 15.4868C161.291 15.4868 160.855 15.3187 160.514 14.9774C160.167 14.6413 159.994 14.2265 159.994 13.7329ZM160.225 16.6525H163.371V27.8059H160.225V16.6525Z" fill="#0D99FF"/>
<path d="M173.175 12.1523V14.8987H171.043C170.224 14.8987 169.819 15.3923 169.819 16.3795V16.6526H172.923V19.1889H169.819V27.806H166.674V19.1889H164.941V16.6526H166.674V16.2745C166.674 14.9092 166.989 13.88 167.614 13.1921C168.239 12.5042 169.173 12.1576 170.413 12.1576H173.175V12.1523Z" fill="#0D99FF"/>
<path d="M176.068 31.9225L177.633 27.6743L173.39 16.647H176.729L179.14 23.4262L181.634 16.647H184.953L179.103 31.9173H176.068V31.9225Z" fill="#0D99FF"/>
<path d="M185.215 26.3251C185.215 25.8735 185.378 25.4849 185.704 25.1646C186.029 24.8391 186.428 24.6763 186.906 24.6763C187.358 24.6763 187.746 24.8391 188.067 25.1646C188.392 25.4902 188.555 25.8735 188.555 26.3251C188.555 26.803 188.392 27.2073 188.067 27.5276C187.741 27.8532 187.358 28.016 186.906 28.016C186.428 28.016 186.024 27.8532 185.704 27.5276C185.378 27.2073 185.215 26.803 185.215 26.3251Z" fill="#0D99FF"/>
<path d="M190.388 13.7329C190.388 13.255 190.561 12.8454 190.908 12.5094C191.254 12.1733 191.685 12 192.205 12C192.714 12 193.139 12.168 193.481 12.5094C193.827 12.8454 194 13.255 194 13.7329C194 14.2265 193.827 14.6413 193.481 14.9774C193.134 15.3135 192.709 15.4868 192.205 15.4868C191.685 15.4868 191.249 15.3187 190.908 14.9774C190.561 14.6413 190.388 14.2265 190.388 13.7329ZM190.624 16.6525H193.769V27.8059H190.624V16.6525Z" fill="#0D99FF"/>
<path d="M195.544 22.2239C195.544 21.3942 195.691 20.6223 195.985 19.9134C196.279 19.2045 196.683 18.5901 197.198 18.0755C197.713 17.5609 198.322 17.1618 199.036 16.873C199.745 16.5842 200.527 16.4424 201.373 16.4424C202.218 16.4424 202.995 16.5894 203.704 16.873C204.413 17.1618 205.033 17.5661 205.563 18.086C206.088 18.6059 206.503 19.2202 206.797 19.9239C207.091 20.6275 207.238 21.3942 207.238 22.2239C207.238 23.0536 207.091 23.8202 206.797 24.5239C206.503 25.2275 206.088 25.8367 205.563 26.3513C205.033 26.8659 204.413 27.265 203.704 27.5538C202.995 27.8426 202.213 27.9844 201.373 27.9844C200.527 27.9844 199.75 27.8426 199.036 27.5538C198.327 27.265 197.713 26.8659 197.198 26.3513C196.683 25.8367 196.279 25.2275 195.985 24.5239C195.691 23.8255 195.544 23.0588 195.544 22.2239ZM198.794 22.2449C198.794 22.5967 198.857 22.938 198.983 23.2584C199.109 23.5839 199.288 23.8622 199.524 24.1038C199.755 24.3453 200.034 24.5344 200.359 24.6762C200.685 24.8179 201.037 24.8862 201.415 24.8862C201.793 24.8862 202.145 24.8179 202.46 24.6762C202.775 24.5344 203.043 24.3453 203.263 24.1038C203.484 23.8622 203.657 23.5839 203.783 23.2584C203.909 22.9328 203.972 22.5967 203.972 22.2449C203.972 21.8773 203.909 21.5307 203.793 21.1999C203.678 20.8691 203.499 20.5803 203.274 20.3335C203.048 20.0867 202.78 19.8924 202.46 19.7506C202.145 19.6088 201.793 19.5406 201.415 19.5406C201.021 19.5406 200.664 19.6141 200.349 19.7506C200.034 19.8924 199.755 20.0867 199.524 20.3335C199.293 20.5803 199.115 20.8691 198.983 21.1999C198.852 21.5307 198.794 21.8826 198.794 22.2449Z" fill="#0D99FF"/>
<path d="M22 44C34.1503 44 44 34.1503 44 22C44 9.84974 34.1503 0 22 0C9.84974 0 0 9.84974 0 22C0 34.1503 9.84974 44 22 44Z" fill="#0D99FF"/>
<path d="M18.0903 17.1257C18.6042 16.5001 19.2074 16.0049 19.8926 15.6437C20.5778 15.2825 21.3151 15.1 22.1045 15.1C23.3147 15.1 24.376 15.4873 25.2846 16.2544C26.1932 17.0252 26.8188 18.0604 27.1614 19.36H29.5111C29.7085 18.2466 29.9915 17.1853 30.3378 16.1799C30.6543 15.2601 30.483 14.2398 29.8946 13.4653C29.5707 13.0407 29.2206 12.6423 28.8408 12.2774C27.9434 11.4097 26.9194 10.7357 25.765 10.2554C24.6143 9.775 23.3818 9.53296 22.071 9.53296C20.6187 9.53296 19.2484 9.85693 17.9674 10.5086C16.6864 11.1602 15.5693 12.0502 14.6198 13.1822C14.4038 13.4392 14.199 13.711 14.0016 13.9903C13.4915 14.7239 13.3649 15.6623 13.6404 16.5113C14.7091 19.7808 15.1299 23.6535 13.8415 27.7831C13.5659 28.6694 13.7149 29.645 14.2772 30.386C14.3889 30.5313 14.5006 30.6728 14.6198 30.8143C15.5693 31.9463 16.6827 32.8363 17.9674 33.4879C19.2484 34.1396 20.6187 34.4636 22.071 34.4636C23.3818 34.4636 24.6143 34.2215 25.765 33.7412C26.9156 33.2608 27.9397 32.5868 28.8408 31.7191C29.1052 31.4622 29.3584 31.1941 29.5967 30.9074C30.2447 30.1365 30.4495 29.079 30.1292 28.122C29.7345 26.9378 29.4813 25.7723 29.3472 24.6365H27.1577C26.8151 25.9361 26.1895 26.9713 25.2809 27.7422C24.3723 28.513 23.311 28.8965 22.1008 28.8965C21.3151 28.8965 20.5741 28.7141 19.8889 28.3529C19.2037 27.9917 18.6005 27.4964 18.0866 26.8708C17.5727 26.2452 17.1668 25.5116 16.8764 24.6663C16.5822 23.8248 16.437 22.9199 16.437 21.9554C16.437 21.017 16.5822 20.1308 16.8764 19.3004C17.1705 18.4812 17.5764 17.7513 18.0903 17.1257Z" fill="white"/>
<path d="M35.8189 32.9184C35.6103 32.9184 35.4055 32.8253 35.2677 32.6428C35.0927 32.4082 34.9252 32.1774 34.765 31.9428C34.5491 31.63 34.6273 31.2017 34.9401 30.9858C35.2528 30.7698 35.6811 30.848 35.8971 31.1608C36.046 31.3768 36.2024 31.5965 36.3663 31.8162C36.5934 32.1215 36.5338 32.5497 36.2285 32.7806C36.1093 32.8737 35.9641 32.9184 35.8189 32.9184ZM33.8527 29.6601C33.5921 29.6601 33.3463 29.5112 33.2271 29.2617C32.892 28.5355 32.6053 27.7833 32.3818 27.0274C32.2738 26.6625 32.4786 26.2789 32.8436 26.1709C33.2085 26.0629 33.5921 26.2678 33.7 26.6327C33.9048 27.3253 34.1692 28.0142 34.4783 28.6808C34.6384 29.0271 34.4895 29.433 34.1432 29.5931C34.0464 29.6378 33.9495 29.6601 33.8527 29.6601ZM32.4675 24.5995C32.1174 24.5995 31.8195 24.3351 31.7823 23.9776C31.7302 23.4526 31.7041 22.9164 31.7041 22.3801C31.7041 22.112 31.7116 21.8476 31.7227 21.587C31.7413 21.2072 32.069 20.9204 32.4414 20.9316C32.8212 20.9502 33.1154 21.2705 33.0968 21.6503C33.0856 21.8886 33.0782 22.1344 33.0782 22.3764C33.0782 22.868 33.1005 23.3595 33.1489 23.8399C33.1862 24.2197 32.9106 24.5548 32.5308 24.5921C32.5122 24.5958 32.4898 24.5995 32.4675 24.5995ZM32.8101 19.3602C32.7617 19.3602 32.7095 19.3565 32.6611 19.3453C32.2887 19.2634 32.0579 18.8947 32.1398 18.5261C32.3074 17.7664 32.5271 16.9993 32.7914 16.2434C32.918 15.8859 33.309 15.696 33.6665 15.8226C34.024 15.9492 34.2139 16.3402 34.0873 16.6977C33.8415 17.4015 33.6367 18.1164 33.4803 18.824C33.4096 19.1405 33.1266 19.3602 32.8101 19.3602ZM34.6273 14.4225C34.5193 14.4225 34.4113 14.3964 34.3107 14.3443C33.9756 14.1692 33.8453 13.7522 34.0203 13.417C34.6906 12.1361 35.2491 11.3913 35.2715 11.3615C35.5023 11.0599 35.9306 11.0003 36.2359 11.2275C36.5375 11.4546 36.6009 11.8866 36.3737 12.1919C36.37 12.1994 35.8561 12.8883 35.2417 14.0575C35.1113 14.2884 34.873 14.4225 34.6273 14.4225Z" fill="white"/>
<path d="M7.76417 32.7804C7.45882 32.5533 7.39924 32.1213 7.62639 31.816C7.79024 31.5963 7.94664 31.3803 8.09559 31.1606C8.31157 30.8478 8.7398 30.7696 9.05259 30.9856C9.36539 31.2016 9.44359 31.6298 9.22761 31.9426C9.06749 32.1772 8.89992 32.4081 8.7249 32.6427C8.59085 32.8214 8.38232 32.9182 8.17379 32.9182C8.03601 32.9182 7.89078 32.8735 7.76417 32.7804ZM9.85693 29.5966C9.51062 29.4365 9.36167 29.0269 9.52179 28.6843C9.83086 28.0177 10.0915 27.3288 10.3001 26.6362C10.408 26.2713 10.7916 26.0665 11.1565 26.1745C11.5215 26.2825 11.7263 26.666 11.6183 27.0309C11.3948 27.7869 11.1081 28.5353 10.773 29.2652C10.6575 29.5147 10.408 29.6637 10.1474 29.6637C10.0506 29.6599 9.95002 29.6376 9.85693 29.5966ZM11.4619 24.5956C11.0858 24.5584 10.8065 24.2232 10.8437 23.8434C10.8921 23.363 10.9145 22.8715 10.9145 22.38C10.9145 22.1342 10.907 21.8922 10.8959 21.6538C10.8772 21.274 11.1714 20.9538 11.5512 20.9351C11.9236 20.924 12.2513 21.2107 12.2699 21.5905C12.2811 21.8512 12.2885 22.1156 12.2885 22.3837C12.2885 22.9162 12.2625 23.4561 12.2103 23.9812C12.1768 24.3349 11.8752 24.6031 11.5252 24.6031C11.5066 24.5993 11.4842 24.5956 11.4619 24.5956ZM10.516 18.82C10.3596 18.1125 10.1548 17.3976 9.90906 16.6938C9.78245 16.3363 9.97236 15.9416 10.3298 15.8187C10.6873 15.6958 11.082 15.882 11.2049 16.2395C11.4693 16.9917 11.689 17.7625 11.8566 18.5221C11.9385 18.8945 11.7039 19.2595 11.3353 19.3414C11.2869 19.3525 11.2347 19.3563 11.1863 19.3563C10.8735 19.36 10.5868 19.1403 10.516 18.82ZM8.76214 14.0536C8.14772 12.8806 7.63384 12.1917 7.63012 12.188C7.40297 11.8827 7.46255 11.4544 7.76789 11.2236C8.06952 10.9964 8.50148 11.056 8.73235 11.3576C8.75469 11.3874 9.31326 12.1359 9.98354 13.4131C10.1586 13.7483 10.0282 14.1653 9.69308 14.3404C9.59254 14.3925 9.48083 14.4186 9.37656 14.4186C9.12334 14.4223 8.88503 14.2882 8.76214 14.0536Z" fill="white"/>
</svg>
